<?xml version="1.0" encoding="UTF-8"?>
<svg xmlns="http://www.w3.org/2000/svg" viewBox="0 0 64 64">
  <defs>
    <style>
      .cls-1 {
        fill: #a4a4a4;
      }

      .cls-2 {
        fill: #fff;
      }

      .cls-3 {
        isolation: isolate;
      }

      .cls-4 {
        fill: #fc0253;
      }
    </style>
  </defs>
  <g id="_타원_1" data-name="타원 1" class="cls-3">
    <g id="_타원_1-2" data-name="타원 1">
      <path class="cls-2" d="M32,63c-17.09,0-31-13.91-31-31S14.91,1,32,1s31,13.91,31,31-13.91,31-31,31Z"/>
      <path class="cls-1" d="M32,2c16.54,0,30,13.46,30,30s-13.46,30-30,30S2,48.54,2,32,15.46,2,32,2M32,0C14.33,0,0,14.33,0,32s14.33,32,32,32,32-14.33,32-32S49.67,0,32,0h0Z"/>
    </g>
  </g>
  <g id="_타원_2" data-name="타원 2" class="cls-3">
    <g id="_타원_2-2" data-name="타원 2">
      <circle class="cls-4" cx="32" cy="32" r="27"/>
    </g>
    <path class="cls-2" d="M47.76,32.33c1.05,0,1.97-.86,1.97-1.98.06-.55-.18-1.05-.68-1.48l-15.73-13.83c-.37-.31-.86-.43-1.29-.43s-.92.06-1.36.49l-15.8,13.77c-.43.43-.62.92-.62,1.48,0,1.11.86,1.98,1.97,1.98h1.97v9.88c0,2.17,1.77,3.94,3.94,3.94h19.74c2.19,0,3.96-1.77,3.94-3.96l-.04-9.87h1.98ZM30.03,27.43c0-.54.44-.99.99-.99h1.97c.54,0,.99.44.99.99v2.96h2.96c.54,0,.99.44.99.99v1.97c0,.54-.44.99-.99.99h-2.96v2.96c0,.54-.44.99-.99.99h-1.97c-.54,0-.99-.44-.99-.99v-2.96h-2.96c-.54,0-.99-.44-.99-.99v-1.97c0-.54.44-.99.99-.99h2.96v-2.96Z"/>
  </g>
</svg>