<?xml version="1.0" encoding="UTF-8"?>
<svg xmlns="http://www.w3.org/2000/svg" viewBox="0 0 64 64">
  <defs>
    <style>
      .cls-1 {
        fill: #a4a4a4;
      }

      .cls-2, .cls-3 {
        fill: #fff;
      }

      .cls-3 {
        fill-rule: evenodd;
      }

      .cls-4 {
        isolation: isolate;
      }

      .cls-5 {
        fill: #155dfc;
      }
    </style>
  </defs>
  <g id="_타원_1" data-name="타원 1" class="cls-4">
    <g id="_타원_1-2" data-name="타원 1">
      <path class="cls-2" d="M32,63c-17.09,0-31-13.91-31-31S14.91,1,32,1s31,13.91,31,31-13.91,31-31,31Z"/>
      <path class="cls-1" d="M32,2c16.54,0,30,13.46,30,30s-13.46,30-30,30S2,48.54,2,32,15.46,2,32,2M32,0C14.33,0,0,14.33,0,32s14.33,32,32,32,32-14.33,32-32S49.67,0,32,0h0Z"/>
    </g>
  </g>
  <g id="_타원_2" data-name="타원 2" class="cls-4">
    <g id="_타원_2-2" data-name="타원 2">
      <circle class="cls-5" cx="32" cy="32" r="27"/>
    </g>
  </g>
  <g id="_9057193_pill_icon_이미지" data-name="9057193_pill_icon 이미지">
    <path class="cls-3" d="M33.06,17.82c3.52-3.61,9.22-3.61,12.74,0,3.52,3.61,3.52,9.47,0,13.09l-14.87,15.27c-3.52,3.61-9.22,3.61-12.74,0-3.52-3.61-3.52-9.47,0-13.09l14.87-15.27ZM43.68,28.73l-6.37,6.54-8.5-8.73,6.37-6.54c2.35-2.41,6.15-2.41,8.5,0,2.35,2.41,2.35,6.32,0,8.73Z"/>
  </g>
</svg>